<svg xmlns="http://www.w3.org/2000/svg" enable-background="new 0 0 32 32" viewBox="0 0 32 32" id="Upwork">
  <path fill="#eeeeee" d="M26,32H6c-3.314,0-6-2.686-6-6V6c0-3.314,2.686-6,6-6h20c3.314,0,6,2.686,6,6v20C32,29.314,29.314,32,26,32z" class="colorfff9dd svgShape"></path>
  <path fill="#000000" d="M20.374,11.35c-1.693,0-3.007,1.098-3.54,2.908c-0.813-1.222-1.432-2.688-1.791-3.924h-1.824v4.737c-0.001,0.936-0.761,1.696-1.698,1.697c-0.937-0.001-1.695-0.761-1.697-1.697v-4.737H8v4.737c0,1.941,1.58,3.532,3.521,3.532c1.942,0,3.522-1.591,3.522-3.532v-0.793c0.353,0.737,0.788,1.485,1.316,2.145l-1.115,5.244h1.865l0.809-3.803c0.709,0.452,1.523,0.739,2.457,0.739c2,0,3.626-1.633,3.626-3.63C24,12.974,22.374,11.35,20.374,11.35z M20.374,16.771c-0.735,0-1.423-0.311-2.049-0.817l0.152-0.717l0.005-0.028c0.138-0.761,0.566-2.038,1.893-2.038c0.995,0,1.802,0.807,1.802,1.8C22.176,15.963,21.369,16.771,20.374,16.771z" class="colorffd200 svgShape"></path>
</svg>
